# xmcd
#
# Track frame offsets:
#	182
#	14205
#	31110
#	45265
#	71562
#	88945
#	106237
#	119127
#	135837
#	154737
#	169440
#	182600
#
# Disc length: 2875 seconds
#
# Revision: 3
# Processed by: cddbd v1.4PL0 Copyright (c) Steve Scherf et al.
# Submitted via: CDmax 1.9
#
DISCID=9e0b390c
DTITLE=Various Artist - New Country March 1995
DYEAR=1995
DGENRE=Country
TTITLE0=Brother Phelps - Anyway the Wind Blows
TTITLE1=Greg Trooper with The Flatirons - Blind Spot
TTITLE2=John Berry - Evey Time My Heart Calls Your Name
TTITLE3=Carla Olsen - Reap the Whirlwind
TTITLE4=Todd Rash - I Would If I Could (But I Can't, So I Won't)
TTITLE5=Essra Mohawk - Whatever It Takes
TTITLE6=The Vidalias - Faking It
TTITLE7=Diamond Rio - Bubba Hyde
TTITLE8=Midsouth - Without You (I Haven't Got a Prayer)
TTITLE9=Boy Howdy - True to His Word
TTITLE10=Tom Dryer - Busiest Memory in Town
TTITLE11=Terry Allen - New Dehli Freight Train
EXTD=
EXTT0=
EXTT1=
EXTT2=
EXTT3=
EXTT4=
EXTT5=
EXTT6=
EXTT7=
EXTT8=
EXTT9=
EXTT10=
EXTT11=
PLAYORDER=
